# This file uses centimeters as units for non-parametric coordinates.

mtllib cobblewallEnd.mtl
g default
v 0.497367 -0.032051 0.258818
v 0.829786 -0.032051 -0.036908
v 0.497367 0.255442 0.258818
v 0.838679 0.127691 -0.044819
v 0.253668 0.255442 -0.015119
v 0.594980 0.127691 -0.318755
v 0.253668 -0.032051 -0.015119
v 0.586087 -0.032051 -0.310844
v 0.602370 -0.035978 0.165405
v 0.710300 0.293616 0.069389
v 0.466601 0.293616 -0.204547
v 0.358671 -0.035978 -0.108531
v -0.548541 -0.158855 -0.083913
v 0.021786 -0.037968 -0.332013
v -0.491479 0.258845 0.015572
v -0.061317 0.457136 -0.138727
v -0.622939 0.339428 -0.247362
v -0.192777 0.537719 -0.401661
v -0.680002 -0.078272 -0.346847
v -0.109675 0.042615 -0.594947
v -0.595364 0.081899 0.013282
v -0.726825 0.162482 -0.249652
v -0.055544 0.411881 -0.508841
v 0.075917 0.331298 -0.245907
v 0.220553 -0.055359 0.427360
v 0.381281 -0.100859 0.288534
v 0.372970 0.056841 0.486135
v 0.527649 0.027849 0.365538
v 0.305406 0.209482 0.359428
v 0.460084 0.180490 0.238831
v 0.152989 0.097282 0.300654
v 0.313716 0.051782 0.161827
v 0.293630 0.039303 0.504124
v 0.226066 0.191945 0.377418
v 0.412848 0.103133 0.170828
v 0.480413 -0.049508 0.297535
v -0.409921 0.464562 0.183297
v -0.085776 0.399936 0.138343
v -0.274280 0.737001 0.180334
v 0.024849 0.702158 0.135380
v -0.317506 0.749700 -0.138343
v -0.018376 0.714856 -0.183297
v -0.453146 0.477261 -0.135380
v -0.129001 0.412634 -0.180334
v -0.389026 0.681673 0.190702
v -0.432251 0.694371 -0.127975
v -0.014997 0.541025 -0.190682
v 0.028228 0.528327 0.127995
v -0.777461 -0.126656 0.424170
v -0.052761 -0.126656 0.629873
v -0.777461 0.050607 0.424170
v -0.052761 0.090937 0.629873
v -0.694230 0.050607 0.130942
v 0.030470 0.090937 0.336645
v -0.694230 -0.126656 0.130942
v 0.030470 -0.126656 0.336645
v -0.473871 -0.126656 0.510343
v -0.473871 0.145324 0.510343
v -0.390639 0.145324 0.217115
v -0.390639 -0.126656 0.217115
v -0.369205 -0.083626 0.252879
v 0.378220 -0.083626 0.252879
v -0.369205 0.422131 0.252879
v 0.276760 0.422131 0.252879
v -0.369205 0.422131 -0.252879
v 0.276760 0.422131 -0.252879
v -0.369205 -0.083626 -0.252879
v 0.378220 -0.083626 -0.252879
v -0.159748 -0.153168 0.252879
v -0.159748 0.491673 0.252879
v -0.159748 0.491673 -0.252879
v -0.159748 -0.153168 -0.252879
vt 0.737505 0.048581
vt 0.825669 0.082251
vt 0.783359 0.193035
vt 0.695195 0.159365
vt 0.759627 0.255176
vt 0.671463 0.221505
vt 0.809317 0.618241
vt 0.899732 0.591191
vt 0.923144 0.669447
vt 0.832729 0.696498
vt 0.941355 0.730315
vt 0.850940 0.757366
vt 0.918873 0.309060
vt 0.915005 0.209486
vt 0.982504 0.206377
vt 0.986372 0.305951
vt 0.798141 0.942043
vt 0.804320 0.842586
vt 0.858096 0.845928
vt 0.851916 0.945385
vt 0.744985 0.938741
vt 0.751165 0.839284
vt 0.608001 0.104774
vt 0.607132 0.010403
vt 0.674499 0.009782
vt 0.675369 0.104153
vt 0.929592 0.104620
vt 0.928790 0.010248
vt 0.983672 0.009782
vt 0.984474 0.104153
vt 0.009766 0.817052
vt 0.010538 0.660463
vt 0.170247 0.661251
vt 0.169475 0.817840
vt 0.744985 0.423242
vt 0.744985 0.266651
vt 0.901576 0.266651
vt 0.901576 0.423242
vt 0.207356 0.617139
vt 0.266458 0.550559
vt 0.351355 0.625921
vt 0.292253 0.692501
vt 0.315555 0.495251
vt 0.400451 0.570613
vt 0.400030 0.803113
vt 0.371095 0.770591
vt 0.455908 0.695135
vt 0.484843 0.727657
vt 0.308449 0.700175
vt 0.393261 0.624719
vt 0.175190 0.846105
vt 0.228255 0.701282
vt 0.316868 0.733750
vt 0.263803 0.878574
vt 0.538566 0.800058
vt 0.460088 0.620269
vt 0.546581 0.582514
vt 0.625060 0.762303
vt 0.873753 0.853858
vt 0.888021 0.760669
vt 0.986664 0.774793
vt 0.972395 0.867981
vt 0.967696 0.907273
vt 0.869054 0.893150
vt 0.024231 0.945757
vt 0.009766 0.843497
vt 0.108365 0.829075
vt 0.122831 0.931335
vt 0.107324 0.649418
vt 0.079363 0.551309
vt 0.170124 0.525443
vt 0.198084 0.623553
vt 0.041931 0.419963
vt 0.132692 0.394097
vt 0.524419 0.338063
vt 0.551100 0.244066
vt 0.641888 0.269836
vt 0.615207 0.363833
vt 0.588108 0.113684
vt 0.678897 0.139453
vt 0.640263 0.828270
vt 0.639941 0.759939
vt 0.796531 0.759202
vt 0.796852 0.827533
vt 0.639297 0.623086
vt 0.795887 0.622349
vt 0.576078 0.611832
vt 0.575756 0.543500
vt 0.732345 0.542763
vt 0.732667 0.611095
vt 0.574966 0.375552
vt 0.731555 0.374815
vt 0.358995 0.327411
vt 0.392323 0.134092
vt 0.510737 0.127656
vt 0.437006 0.351628
vt 0.552621 0.179331
vt 0.492981 0.321573
vt 0.483423 0.586503
vt 0.410183 0.362369
vt 0.528582 0.369065
vt 0.561487 0.562457
vt 0.427514 0.556325
vt 0.368185 0.413952
vt 0.310487 0.948759
vt 0.290068 0.847520
vt 0.329706 0.811949
vt 0.377756 0.942379
vt 0.383574 0.813064
vt 0.394804 0.906668
vt 0.564502 0.954340
vt 0.612337 0.823831
vt 0.652033 0.859336
vt 0.631781 0.960609
vt 0.547395 0.918657
vt 0.558471 0.825035
vt 0.837511 0.243205
vt 0.837250 0.145495
vt 0.921459 0.145270
vt 0.892395 0.243058
vt 0.836888 0.009963
vt 0.904258 0.009782
vt 0.934989 0.605811
vt 0.905815 0.508056
vt 0.990024 0.508187
vt 0.989872 0.605897
vt 0.922864 0.372549
vt 0.990234 0.372654
vt 0.178341 0.483798
vt 0.156810 0.418946
vt 0.356463 0.418946
vt 0.334932 0.483798
vt 0.178341 0.252382
vt 0.334932 0.283796
vt 0.192126 0.241193
vt 0.170595 0.176341
vt 0.370248 0.176341
vt 0.348717 0.241193
vt 0.192126 0.041191
vt 0.348717 0.009777
vt 0.049771 0.184965
vt 0.159976 0.201366
vt 0.124352 0.266176
vt 0.075657 0.275589
vt 0.125432 0.119313
vt 0.039534 0.142655
vt 0.097203 0.387046
vt 0.145898 0.377633
vt 0.009766 0.033107
vt 0.095663 0.009766
vt 0.835681 0.526681
vt 0.814408 0.474383
vt 0.822246 0.438632
vt 0.875054 0.516622
vt 0.813552 0.573336
vt 0.751631 0.504687
vt 0.744985 0.465174
vt 0.863639 0.434728
vt 0.887409 0.498658
vt 0.874400 0.582973
vt 0.905135 0.574451
vt 0.372780 0.018337
vt 0.416134 0.014421
vt 0.467112 0.113494
vt 0.378309 0.107178
vt 0.510270 0.009781
vt 0.517020 0.058916
vt 0.461036 0.895976
vt 0.527919 0.823652
vt 0.542651 0.856475
vt 0.502422 0.916029
vt 0.459267 0.869492
vt 0.493971 0.823751
vt 0.414136 0.816920
vt 0.461283 0.772303
vt 0.495632 0.758591
vn 0.664668 0.000000 0.747139
vn 0.664668 0.000000 0.747139
vn 0.664668 0.000000 0.747139
vn 0.664668 0.000000 0.747139
vn -0.099190 0.991148 0.088242
vn 0.201217 0.963052 -0.179006
vn 0.201217 0.963052 -0.179006
vn -0.099190 0.991148 0.088242
vn -0.664668 0.000000 -0.747139
vn -0.664668 -0.000000 -0.747139
vn -0.664668 -0.000000 -0.747139
vn -0.664668 0.000000 -0.747139
vn -0.020870 -0.999610 0.018566
vn -0.000000 -1.000000 0.000000
vn 0.000000 -1.000000 -0.000000
vn -0.020870 -0.999610 0.018566
vn 0.745073 -0.074305 -0.662831
vn 0.745073 -0.074305 -0.662831
vn 0.745073 -0.074305 -0.662831
vn 0.745073 -0.074305 -0.662831
vn -0.747139 0.000000 0.664668
vn -0.747139 0.000000 0.664668
vn -0.747139 0.000000 0.664668
vn -0.747139 0.000000 0.664668
vn 0.664668 0.000000 0.747139
vn 0.664668 0.000000 0.747139
vn 0.518995 0.719355 -0.461707
vn 0.518995 0.719355 -0.461707
vn -0.664668 -0.000000 -0.747139
vn -0.664668 -0.000000 -0.747139
vn 0.009639 -0.999917 -0.008575
vn 0.009639 -0.999917 -0.008575
vn 0.431285 -0.264370 0.862613
vn 0.431285 -0.264370 0.862613
vn 0.431285 -0.264370 0.862614
vn 0.431285 -0.264370 0.862613
vn -0.261474 0.878447 0.399952
vn -0.261474 0.878447 0.399952
vn -0.261474 0.878447 0.399952
vn -0.261474 0.878447 0.399952
vn -0.431285 0.264370 -0.862613
vn -0.431285 0.264370 -0.862614
vn -0.431285 0.264370 -0.862613
vn -0.431285 0.264370 -0.862614
vn 0.061062 -0.945360 -0.320259
vn 0.061062 -0.945360 -0.320259
vn 0.061062 -0.945360 -0.320259
vn 0.061062 -0.945360 -0.320259
vn 0.891078 -0.024954 -0.453164
vn 0.891078 -0.024954 -0.453164
vn 0.888892 0.288216 -0.356092
vn 0.888892 0.288216 -0.356092
vn -0.884587 -0.311989 0.346654
vn -0.884587 -0.311989 0.346654
vn -0.892546 0.014583 0.450720
vn -0.892546 0.014583 0.450720
vn -0.746786 0.431899 0.505740
vn -0.746786 0.431899 0.505740
vn -0.431285 0.264369 -0.862614
vn -0.431285 0.264369 -0.862614
vn 0.637150 0.766176 -0.083745
vn 0.637150 0.766176 -0.083745
vn 0.431285 -0.264370 0.862613
vn 0.431285 -0.264370 0.862613
vn 0.318346 -0.730405 0.604289
vn 0.318346 -0.730405 0.604289
vn 0.317869 -0.733154 0.601202
vn 0.318004 -0.732379 0.602075
vn 0.531466 0.667820 0.521115
vn 0.531466 0.667820 0.521115
vn 0.531466 0.667820 0.521115
vn 0.531466 0.667820 0.521115
vn -0.318004 0.732379 -0.602075
vn -0.317868 0.733155 -0.601202
vn -0.318346 0.730405 -0.604288
vn -0.318346 0.730405 -0.604288
vn -0.592201 -0.653478 -0.471450
vn -0.592201 -0.653478 -0.471450
vn -0.592201 -0.653478 -0.471450
vn -0.592201 -0.653478 -0.471450
vn 0.335727 -0.509210 -0.792460
vn 0.335727 -0.509210 -0.792460
vn 0.638953 -0.303811 -0.706709
vn 0.638953 -0.303811 -0.706709
vn -0.796229 0.136763 0.589335
vn -0.796229 0.136763 0.589335
vn -0.554561 0.372299 0.744215
vn -0.562200 0.366532 0.741341
vn 0.030041 0.646263 0.762523
vn 0.030041 0.646263 0.762523
vn -0.317124 0.737351 -0.596444
vn -0.317124 0.737351 -0.596444
vn 0.849873 -0.058557 -0.523725
vn 0.849873 -0.058557 -0.523725
vn 0.317124 -0.737351 0.596444
vn 0.317124 -0.737351 0.596444
vn 0.131238 -0.042805 0.990426
vn 0.131238 -0.042805 0.990426
vn 0.132671 -0.046695 0.990060
vn 0.132266 -0.045596 0.990165
vn 0.119136 0.992602 0.023392
vn 0.119136 0.992602 0.023392
vn 0.119136 0.992602 0.023392
vn 0.119136 0.992602 0.023392
vn -0.132266 0.045596 -0.990165
vn -0.132671 0.046695 -0.990060
vn -0.131238 0.042805 -0.990426
vn -0.131238 0.042805 -0.990426
vn -0.197155 -0.980295 -0.012320
vn -0.197154 -0.980295 -0.012320
vn -0.197155 -0.980295 -0.012320
vn -0.197154 -0.980295 -0.012320
vn 0.736685 -0.664318 -0.126395
vn 0.736685 -0.664318 -0.126395
vn 0.929419 -0.341572 -0.139677
vn 0.929419 -0.341572 -0.139677
vn -0.986398 0.090243 0.137391
vn -0.986398 0.090243 0.137391
vn -0.883822 0.447100 0.137697
vn -0.888256 0.438147 0.137941
vn -0.425551 0.900082 0.093587
vn -0.425551 0.900082 0.093587
vn -0.134866 0.052665 -0.989463
vn -0.134866 0.052665 -0.989463
vn 0.990750 0.024924 -0.133392
vn 0.990750 0.024924 -0.133392
vn 0.134866 -0.052664 0.989463
vn 0.134866 -0.052664 0.989463
vn -0.273059 0.000000 0.961998
vn -0.273059 0.000000 0.961997
vn -0.273059 0.000000 0.961997
vn -0.273059 0.000000 0.961998
vn -0.276542 0.957791 -0.078495
vn -0.051428 0.998570 -0.014598
vn -0.051428 0.998570 -0.014598
vn -0.276542 0.957791 -0.078495
vn 0.273059 0.000000 -0.961998
vn 0.273059 0.000000 -0.961997
vn 0.273059 0.000000 -0.961997
vn 0.273059 0.000000 -0.961997
vn 0.000000 -1.000000 -0.000000
vn 0.000000 -1.000000 -0.000000
vn 0.000000 -1.000000 -0.000000
vn 0.000000 -1.000000 -0.000000
vn 0.961997 0.000000 0.273058
vn 0.961997 0.000000 0.273058
vn 0.961997 0.000000 0.273058
vn 0.961997 0.000000 0.273058
vn -0.961997 0.000000 -0.273058
vn -0.961997 0.000000 -0.273058
vn -0.961997 0.000000 -0.273058
vn -0.961997 0.000000 -0.273058
vn -0.273059 0.000000 0.961997
vn -0.273059 0.000000 0.961997
vn 0.118611 0.992370 0.033667
vn 0.118611 0.992370 0.033667
vn 0.273059 0.000000 -0.961997
vn 0.273059 0.000000 -0.961997
vn 0.000000 -1.000000 0.000000
vn 0.000000 -1.000000 0.000000
vn 0.000000 0.000000 1.000000
vn 0.000000 0.000000 1.000000
vn 0.000000 0.000000 1.000000
vn 0.000000 0.000000 1.000000
vn -0.315096 0.949060 0.000000
vn -0.000000 1.000000 0.000000
vn -0.000000 1.000000 0.000000
vn -0.315096 0.949060 0.000000
vn 0.000000 0.000000 -1.000000
vn 0.000000 0.000000 -1.000000
vn 0.000000 0.000000 -1.000000
vn 0.000000 0.000000 -1.000000
vn -0.315096 -0.949060 0.000000
vn 0.000000 -1.000000 0.000000
vn 0.000000 -1.000000 0.000000
vn -0.315096 -0.949060 0.000000
vn 0.980466 0.196691 0.000000
vn 0.980466 0.196691 0.000000
vn 0.980466 0.196691 0.000000
vn 0.980466 0.196691 0.000000
vn -1.000000 0.000000 0.000000
vn -1.000000 0.000000 0.000000
vn -1.000000 0.000000 0.000000
vn -1.000000 0.000000 0.000000
vn 0.000000 0.000000 1.000000
vn 0.000000 0.000000 1.000000
vn 0.157329 0.987546 0.000000
vn 0.157329 0.987546 0.000000
vn 0.000000 0.000000 -1.000000
vn 0.000000 0.000000 -1.000000
vn 0.128200 -0.991748 0.000000
vn 0.128200 -0.991748 0.000000
s 1
g cobblewallEnd
usemtl initialShadingGroup
f 1/162/1 9/163/2 10/164/3 3/165/4
s 2
f 3/39/5 10/40/6 11/41/7 5/42/8
s 3
f 5/145/9 11/142/10 12/141/11 7/146/12
s 4
f 7/45/13 12/46/14 9/47/15 1/48/16
s off
f 2/147/17 8/144/18 6/143/19 4/148/20
f 7/146/21 1/149/22 3/150/23 5/145/24
s 1
f 10/164/3 9/163/2 2/166/25 4/167/26
s 2
f 11/41/7 10/40/6 4/43/27 6/44/28
s 3
f 12/141/11 11/142/10 6/143/29 8/144/30
s 4
f 9/47/15 12/46/14 8/49/31 2/50/32
s 5
f 13/93/33 14/94/34 24/95/35 21/96/36
s off
f 15/51/37 16/52/38 18/53/39 17/54/40
s 6
f 22/99/41 23/100/42 20/101/43 19/102/44
s off
f 19/55/45 20/56/46 14/57/47 13/58/48
s 7
f 14/1/49 20/2/50 23/3/51 24/4/52
s 8
f 19/7/53 13/8/54 21/9/55 22/10/56
f 22/10/56 21/9/55 15/11/57 17/12/58
s 6
f 17/103/59 18/104/60 23/100/42 22/99/41
s 7
f 24/4/52 23/3/51 18/5/61 16/6/62
s 5
f 21/96/36 24/95/35 16/97/63 15/98/64
s 9
f 25/151/65 26/152/66 36/153/67 33/154/68
s off
f 27/174/69 28/175/70 30/173/71 29/172/72
s 10
f 34/168/73 35/169/74 32/170/75 31/171/76
s off
f 31/155/77 32/156/78 26/152/79 25/151/80
s 11
f 26/152/81 32/156/82 35/157/83 36/153/84
s 12
f 31/155/85 25/151/86 33/154/87 34/160/88
f 34/160/88 33/154/87 27/159/89 29/161/90
s 10
f 29/172/91 30/173/92 35/169/74 34/168/73
s 11
f 36/176/84 35/169/83 30/173/93 28/175/94
s 9
f 33/154/68 36/153/67 28/158/95 27/159/96
s 13
f 37/105/97 38/106/98 48/107/99 45/108/100
s off
f 39/59/101 40/60/102 42/61/103 41/62/104
s 14
f 46/111/105 47/112/106 44/113/107 43/114/108
s off
f 43/65/109 44/66/110 38/67/111 37/68/112
s 15
f 38/21/113 44/22/114 47/18/115 48/17/116
s 16
f 43/13/117 37/14/118 45/15/119 46/16/120
f 46/63/120 45/64/119 39/59/121 41/62/122
s 14
f 41/115/123 42/116/124 47/112/106 46/111/105
s 15
f 48/17/116 47/18/115 42/19/125 40/20/126
s 13
f 45/108/100 48/107/99 40/109/127 39/110/128
s 17
f 49/117/129 57/118/130 58/119/131 51/120/132
s 18
f 51/69/133 58/70/134 59/71/135 53/72/136
s 19
f 53/123/137 59/124/138 60/125/139 55/126/140
s 20
f 55/75/141 60/76/142 57/77/143 49/78/144
s off
f 50/23/145 56/24/146 54/25/147 52/26/148
f 55/27/149 49/28/150 51/29/151 53/30/152
s 17
f 58/119/131 57/118/130 50/121/153 52/122/154
s 18
f 59/71/135 58/70/134 52/73/155 54/74/156
s 19
f 60/125/139 59/124/138 54/127/157 56/128/158
s 20
f 57/77/143 60/76/142 56/79/159 50/80/160
s 21
f 61/129/161 69/130/162 70/131/163 63/132/164
s 22
f 63/81/165 70/82/166 71/83/167 65/84/168
s 23
f 65/135/169 71/136/170 72/137/171 67/138/172
s 24
f 67/87/173 72/88/174 69/89/175 61/90/176
s off
f 62/31/177 68/32/178 66/33/179 64/34/180
f 67/35/181 61/36/182 63/37/183 65/38/184
s 21
f 70/131/163 69/130/162 62/133/185 64/134/186
s 22
f 71/83/167 70/82/166 64/85/187 66/86/188
s 23
f 72/137/171 71/136/170 66/139/189 68/140/190
s 24
f 69/89/175 72/88/174 68/91/191 62/92/192
