# This file uses centimeters as units for non-parametric coordinates.

mtllib cup.mtl
g default
v 0.092831 0.000000 -0.160788
v -0.092831 0.000000 -0.160788
v -0.185662 0.000000 -0.000000
v -0.092831 0.000000 0.160788
v 0.092831 0.000000 0.160788
v 0.185662 0.000000 0.000000
v 0.162828 0.651312 -0.282026
v -0.162828 0.651312 -0.282027
v -0.325656 0.651312 -0.000000
v -0.162828 0.651312 0.282027
v 0.162828 0.651312 0.282027
v 0.325656 0.651312 0.000000
v 0.000000 0.000000 0.000000
v 0.073459 0.036761 -0.127234
v -0.073458 0.036761 -0.127234
v -0.140092 0.651312 -0.242646
v 0.140092 0.651312 -0.242646
v -0.146917 0.036761 -0.000000
v -0.280184 0.651312 -0.000000
v -0.073459 0.036761 0.127234
v -0.140092 0.651312 0.242646
v 0.073459 0.036761 0.127234
v 0.140092 0.651312 0.242646
v 0.146917 0.036761 -0.000000
v 0.280184 0.651312 -0.000000
v -0.000000 0.053409 -0.000000
vt 0.954061 0.327577
vt 0.882021 0.327577
vt 0.846001 0.389966
vt 0.882021 0.452354
vt 0.954060 0.452354
vt 0.990080 0.389966
vt 0.601494 0.368078
vt 0.071254 0.668266
vt 0.071254 0.368078
vt 0.177302 0.668266
vt 0.177302 0.368078
vt 0.283350 0.668266
vt 0.918041 0.389966
vt 0.283350 0.368078
vt 0.389398 0.668266
vt 0.389398 0.368078
vt 0.495446 0.668266
vt 0.495446 0.368078
vt 0.009766 0.009782
vt 0.009766 0.357831
vt 0.589847 0.357831
vt 0.125782 0.009782
vt 0.125782 0.357831
vt 0.241798 0.009782
vt 0.241798 0.357831
vt 0.357814 0.009782
vt 0.357814 0.357831
vt 0.473830 0.009782
vt 0.473830 0.357831
vt 0.601494 0.668266
vt 0.707542 0.668266
vt 0.707542 0.368078
vt 0.589847 0.009782
vt 0.705863 0.009782
vt 0.705863 0.357831
vt 0.772216 0.186338
vt 0.772216 0.095686
vt 0.850723 0.141012
vt 0.850723 0.050359
vt 0.850723 0.231664
vt 0.929230 0.095686
vt 0.929230 0.186338
vt 0.990234 0.248275
vt 0.971006 0.237174
vt 0.971006 0.100370
vt 0.990234 0.089269
vt 0.852531 0.327779
vt 0.852531 0.305576
vt 0.852531 0.031968
vt 0.852531 0.009766
vt 0.714827 0.248275
vt 0.734055 0.237174
vt 0.734055 0.100370
vt 0.714827 0.089269
vn -0.000000 0.184573 0.982819
vn -0.000000 0.184573 0.982819
vn -0.000000 0.184573 0.982819
vn -0.000000 0.184573 0.982819
vn 0.851146 0.184573 0.491410
vn 0.851146 0.184573 0.491410
vn 0.851146 0.184573 0.491410
vn 0.851146 0.184573 0.491410
vn 0.851146 0.184573 -0.491409
vn 0.851146 0.184573 -0.491409
vn 0.851146 0.184573 -0.491409
vn 0.851146 0.184573 -0.491409
vn -0.000000 0.184573 -0.982819
vn -0.000000 0.184573 -0.982819
vn -0.000000 0.184573 -0.982819
vn -0.000000 0.184573 -0.982819
vn -0.851146 0.184573 -0.491409
vn -0.851146 0.184573 -0.491409
vn -0.851146 0.184573 -0.491409
vn -0.851146 0.184573 -0.491409
vn -0.851146 0.184573 0.491409
vn -0.851146 0.184573 0.491409
vn -0.851146 0.184573 0.491409
vn -0.851146 0.184573 0.491409
vn -0.056298 0.993641 -0.097512
vn -0.000000 1.000000 0.000000
vn 0.056299 0.993641 -0.097512
vn -0.112597 0.993641 0.000000
vn -0.056299 0.993641 0.097512
vn 0.056298 0.993641 0.097512
vn 0.112597 0.993641 -0.000000
vn 0.000000 -0.183001 -0.983113
vn 0.000000 -0.183001 -0.983113
vn 0.000000 -0.183001 -0.983113
vn 0.000000 -0.183001 -0.983113
vn -0.851400 -0.183001 -0.491556
vn -0.851400 -0.183001 -0.491556
vn -0.851400 -0.183001 -0.491556
vn -0.851400 -0.183001 -0.491556
vn -0.851401 -0.183001 0.491556
vn -0.851401 -0.183001 0.491556
vn -0.851401 -0.183001 0.491556
vn -0.851401 -0.183001 0.491556
vn 0.000000 -0.183001 0.983113
vn 0.000000 -0.183001 0.983113
vn 0.000000 -0.183001 0.983113
vn 0.000000 -0.183001 0.983113
vn 0.851400 -0.183001 0.491556
vn 0.851400 -0.183001 0.491556
vn 0.851400 -0.183001 0.491556
vn 0.851400 -0.183001 0.491556
vn 0.851401 -0.183001 -0.491556
vn 0.851401 -0.183001 -0.491556
vn 0.851401 -0.183001 -0.491556
vn 0.851401 -0.183001 -0.491556
vn 0.000000 -1.000000 0.000000
vn 0.000000 -1.000000 0.000000
vn 0.000000 -1.000000 0.000000
vn 0.000000 -1.000000 0.000000
vn 0.000000 -1.000000 0.000000
vn 0.000000 -1.000000 0.000000
vn 0.000000 -1.000000 0.000000
vn 0.000000 1.000000 0.000000
vn 0.000000 1.000000 0.000000
vn 0.000000 1.000000 0.000000
vn 0.000000 1.000000 0.000000
vn 0.000000 1.000000 0.000000
vn 0.000000 1.000000 0.000000
vn 0.000000 1.000000 -0.000001
vn 0.000000 1.000000 -0.000001
vn 0.000000 1.000000 -0.000000
vn 0.000000 1.000000 -0.000000
vn 0.000000 1.000000 0.000000
vn 0.000000 1.000000 0.000000
s off
g cup
usemtl initialShadingGroup
f 14/7/1 17/30/2 16/31/3 15/32/4
f 15/9/5 16/8/6 19/10/7 18/11/8
f 18/11/9 19/10/10 21/12/11 20/14/12
f 20/14/13 21/12/14 23/15/15 22/16/16
f 22/16/17 23/15/18 25/17/19 24/18/20
f 24/18/21 25/17/22 17/30/23 14/7/24
s 1
f 15/2/25 26/13/26 14/1/27
f 18/3/28 26/13/26 15/2/25
f 20/4/29 26/13/26 18/3/28
f 22/5/30 26/13/26 20/4/29
f 24/6/31 26/13/26 22/5/30
f 14/1/27 26/13/26 24/6/31
s off
f 1/33/32 2/34/33 8/35/34 7/21/35
f 2/19/36 3/22/37 9/23/38 8/20/39
f 3/22/40 4/24/41 10/25/42 9/23/43
f 4/24/44 5/26/45 11/27/46 10/25/47
f 5/26/48 6/28/49 12/29/50 11/27/51
f 6/28/52 1/33/53 7/21/54 12/29/55
s 2
f 2/36/56 1/37/57 13/38/58
f 3/40/59 2/36/56 13/38/58
f 4/42/60 3/40/59 13/38/58
f 5/41/61 4/42/60 13/38/58
f 6/39/62 5/41/61 13/38/58
f 1/37/57 6/39/62 13/38/58
s 3
f 8/43/63 16/44/64 17/45/65 7/46/66
f 9/47/67 19/48/68 16/44/64 8/43/63
f 10/51/69 21/52/70 19/48/68 9/47/67
f 11/54/71 23/53/72 21/52/70 10/51/69
f 12/50/73 25/49/74 23/53/72 11/54/71
f 7/46/66 17/45/65 25/49/74 12/50/73
