# This file uses centimeters as units for non-parametric coordinates.

mtllib fenceLong.mtl
g default
v -0.013885 1.875163 -0.269176
v 6.048703 1.661001 -0.269176
v -0.012114 2.181389 -0.269176
v 6.050474 1.967227 -0.269176
v -0.012114 2.181389 -0.381239
v 6.050474 1.967227 -0.381239
v -0.013885 1.875163 -0.381239
v 6.048703 1.661001 -0.381239
v 12.608716 -0.000000 -0.421978
v 12.161588 -0.000000 -0.110183
v 12.319954 -0.000000 0.411411
v 12.864957 -0.000000 0.421978
v 13.043421 -0.000000 -0.093085
v 12.554635 2.330577 -0.438686
v 12.089803 2.330577 -0.114545
v 12.254439 2.330577 0.427700
v 12.821021 2.330577 0.438686
v 13.006552 2.330577 -0.096771
v 12.599727 -0.000000 0.041628
v 12.545290 2.330577 0.043277
v 12.613195 0.756879 -0.421978
v 13.047901 0.756879 -0.093085
v 12.869436 0.756879 0.421978
v 12.324433 0.756879 0.411411
v 12.166068 0.756879 -0.110183
v 12.553688 1.883319 -0.421978
v 12.988393 1.883319 -0.093085
v 12.809929 1.883319 0.421978
v 12.264926 1.883319 0.411411
v 12.106560 1.883319 -0.110183
v 0.000000 0.671582 -0.269176
v 6.069048 0.708679 -0.269176
v -0.020547 0.977123 -0.269176
v 6.048501 1.014220 -0.269176
v -0.020547 0.977123 -0.381239
v 6.048501 1.014220 -0.381239
v 0.000000 0.671582 -0.381239
v 6.069048 0.708679 -0.381239
v 6.332602 0.830684 -0.269176
v 12.401651 0.867781 -0.269176
v 6.312056 1.136226 -0.269176
v 12.381103 1.173323 -0.269176
v 6.312056 1.136226 -0.381239
v 12.381103 1.173323 -0.381239
v 6.332602 0.830684 -0.381239
v 12.401651 0.867781 -0.381239
v 6.307089 1.649811 -0.269176
v 12.373179 1.708080 -0.269176
v 6.295109 1.955808 -0.269176
v 12.361198 2.014077 -0.269176
v 6.295109 1.955808 -0.381239
v 12.361198 2.014077 -0.381239
v 6.307089 1.649811 -0.381239
v 12.373179 1.708080 -0.381239
v -0.061406 -0.000000 -0.421978
v -0.508534 -0.000000 -0.110183
v -0.350169 -0.000000 0.411411
v 0.194835 -0.000000 0.421978
v 0.373300 -0.000000 -0.093085
v -0.115487 2.330577 -0.438686
v -0.580318 2.330577 -0.114545
v -0.415682 2.330577 0.427700
v 0.150899 2.330577 0.438686
v 0.336430 2.330577 -0.096771
v -0.070395 -0.000000 0.041628
v -0.124832 2.330577 0.043277
v -0.056927 0.756879 -0.421978
v 0.377779 0.756879 -0.093085
v 0.199314 0.756879 0.421978
v -0.345689 0.756879 0.411411
v -0.504054 0.756879 -0.110183
v -0.116434 1.883319 -0.421978
v 0.318272 1.883319 -0.093085
v 0.139807 1.883319 0.421978
v -0.405196 1.883319 0.411411
v -0.563561 1.883319 -0.110183
v 5.999220 -0.000000 -0.421978
v 5.552092 -0.000000 -0.110183
v 5.710457 -0.000000 0.411411
v 6.255461 -0.000000 0.421978
v 6.433926 -0.000000 -0.093085
v 5.945139 2.330577 -0.438686
v 5.480308 2.330577 -0.114545
v 5.644943 2.330577 0.427700
v 6.211525 2.330577 0.438686
v 6.397056 2.330577 -0.096771
v 5.990231 -0.000000 0.041628
v 5.935795 2.330577 0.043277
v 6.003699 0.756879 -0.421978
v 6.438405 0.756879 -0.093085
v 6.259940 0.756879 0.421978
v 5.714937 0.756879 0.411411
v 5.556572 0.756879 -0.110183
v 5.944192 1.883319 -0.421978
v 6.378898 1.883319 -0.093085
v 6.200433 1.883319 0.421978
v 5.655430 1.883319 0.411411
v 5.497065 1.883319 -0.110183
vt 0.310366 0.803680
vt 0.323093 0.803680
vt 0.323093 0.838459
vt 0.310366 0.838459
vt 0.329861 0.963229
vt 0.342588 0.963229
vt 0.342588 0.998008
vt 0.329861 0.998008
vt 0.606428 0.001992
vt 0.665667 0.001992
vt 0.665667 0.087954
vt 0.606428 0.087954
vt 0.665667 0.215888
vt 0.606428 0.215888
vt 0.571016 0.001992
vt 0.571016 0.087954
vt 0.667517 0.266685
vt 0.605932 0.266685
vt 0.571016 0.215888
vt 0.569118 0.266685
vt 0.751789 0.001992
vt 0.810286 0.001992
vt 0.810286 0.087954
vt 0.751789 0.087954
vt 0.847640 0.001992
vt 0.847640 0.087954
vt 0.810286 0.215888
vt 0.751789 0.215888
vt 0.847640 0.215888
vt 0.810705 0.266685
vt 0.749891 0.266685
vt 0.849538 0.266685
vt 0.388346 0.963229
vt 0.401073 0.963229
vt 0.401073 0.997930
vt 0.388346 0.997930
vt 0.407841 0.963229
vt 0.420568 0.963229
vt 0.420568 0.997930
vt 0.407841 0.997930
vt 0.427336 0.963229
vt 0.440064 0.963229
vt 0.440064 0.997930
vt 0.427336 0.997930
vt 0.446831 0.963229
vt 0.459559 0.963229
vt 0.459559 0.997930
vt 0.446831 0.997930
vt 0.349356 0.963229
vt 0.362083 0.963229
vt 0.362083 0.997982
vt 0.349356 0.997982
vt 0.368851 0.963229
vt 0.381578 0.963229
vt 0.381578 0.997982
vt 0.368851 0.997982
vt 0.846450 0.270314
vt 0.905689 0.270314
vt 0.905689 0.356276
vt 0.846450 0.356276
vt 0.905689 0.484210
vt 0.846450 0.484210
vt 0.811038 0.270314
vt 0.811038 0.356276
vt 0.907539 0.535007
vt 0.845954 0.535007
vt 0.811038 0.484210
vt 0.809140 0.535007
vt 0.630385 0.270314
vt 0.688883 0.270314
vt 0.688883 0.356276
vt 0.630385 0.356276
vt 0.726237 0.270314
vt 0.726237 0.356276
vt 0.688883 0.484210
vt 0.630385 0.484210
vt 0.726237 0.484210
vt 0.689302 0.535007
vt 0.628488 0.535007
vt 0.728134 0.535007
vt 0.561819 0.694374
vt 0.621059 0.694374
vt 0.621059 0.780336
vt 0.561819 0.780336
vt 0.621059 0.908270
vt 0.561819 0.908270
vt 0.526407 0.694374
vt 0.526407 0.780336
vt 0.622909 0.959067
vt 0.561324 0.959067
vt 0.526407 0.908270
vt 0.524510 0.959067
vt 0.345755 0.694907
vt 0.404253 0.694907
vt 0.404253 0.780868
vt 0.345755 0.780868
vt 0.441607 0.694907
vt 0.441607 0.780868
vt 0.404253 0.908802
vt 0.345755 0.908802
vt 0.441607 0.908802
vt 0.404672 0.959599
vt 0.343858 0.959599
vt 0.443504 0.959599
vt 0.530128 0.690543
vt 0.530128 0.001992
vt 0.542856 0.001992
vt 0.542856 0.690543
vt 0.549623 0.690543
vt 0.549623 0.001992
vt 0.562351 0.001992
vt 0.562351 0.690543
vt 0.037223 0.905142
vt 0.001812 0.854360
vt 0.054465 0.855381
vt 0.039165 0.804989
vt 0.096463 0.887156
vt 0.097663 0.825257
vt 0.338278 0.747257
vt 0.301464 0.800050
vt 0.283540 0.748319
vt 0.239879 0.781352
vt 0.299446 0.695931
vt 0.238632 0.717003
vt 0.282009 0.691277
vt 0.282009 0.001992
vt 0.294736 0.001992
vt 0.294736 0.691277
vt 0.301504 0.691277
vt 0.301504 0.001992
vt 0.314232 0.001992
vt 0.314232 0.691277
vt 0.320999 0.691277
vt 0.320999 0.001992
vt 0.333727 0.001992
vt 0.333727 0.691277
vt 0.340494 0.691277
vt 0.340494 0.001992
vt 0.353222 0.001992
vt 0.353222 0.691277
vt 0.359989 0.690941
vt 0.359989 0.001992
vt 0.372717 0.001992
vt 0.372717 0.690941
vt 0.379485 0.690941
vt 0.379485 0.001992
vt 0.392212 0.001992
vt 0.392212 0.690941
vt 0.140193 0.905142
vt 0.104781 0.854360
vt 0.157435 0.855381
vt 0.142135 0.804989
vt 0.199432 0.887156
vt 0.200632 0.825258
vt 0.233053 0.748566
vt 0.196239 0.801359
vt 0.178314 0.749628
vt 0.134654 0.782661
vt 0.194220 0.697240
vt 0.133406 0.718312
vt 0.242985 0.905142
vt 0.207573 0.854360
vt 0.260227 0.855381
vt 0.244927 0.804989
vt 0.302224 0.887156
vt 0.303425 0.825258
vt 0.127827 0.748566
vt 0.091013 0.801359
vt 0.073089 0.749628
vt 0.029428 0.782661
vt 0.088994 0.697240
vt 0.028180 0.718312
vt 0.423303 0.690745
vt 0.398980 0.002193
vt 0.433759 0.001992
vt 0.458082 0.690543
vt 0.464554 0.690543
vt 0.488877 0.001992
vt 0.523656 0.002193
vt 0.499333 0.690744
vt 0.681124 0.001992
vt 0.743022 0.001992
vt 0.743531 0.087954
vt 0.681632 0.087954
vt 0.736772 0.215888
vt 0.674874 0.215888
vt 0.738032 0.266685
vt 0.673683 0.266685
vt 0.001811 0.691277
vt 0.006025 0.001992
vt 0.040726 0.004326
vt 0.036513 0.693610
vt 0.052281 0.693611
vt 0.048068 0.004326
vt 0.082770 0.001992
vt 0.086983 0.691277
vt 0.094147 0.691277
vt 0.098361 0.001992
vt 0.133062 0.004326
vt 0.128849 0.693611
vt 0.144440 0.693611
vt 0.140227 0.004326
vt 0.174928 0.001992
vt 0.179141 0.691277
vt 0.186306 0.690941
vt 0.192924 0.001992
vt 0.227677 0.003353
vt 0.221059 0.692302
vt 0.240776 0.692302
vt 0.234158 0.003353
vt 0.268911 0.001992
vt 0.275529 0.690941
vt 0.741154 0.270314
vt 0.803052 0.270314
vt 0.803561 0.356276
vt 0.741663 0.356276
vt 0.796803 0.484210
vt 0.734905 0.484210
vt 0.798062 0.535007
vt 0.733714 0.535007
vt 0.456524 0.694374
vt 0.518422 0.694374
vt 0.518931 0.780336
vt 0.457033 0.780336
vt 0.512172 0.908270
vt 0.450274 0.908270
vt 0.513432 0.959067
vt 0.449083 0.959067
vn 0.000000 0.000000 1.000000
vn 0.000000 0.000000 1.000000
vn 0.000000 0.000000 1.000000
vn 0.000000 0.000000 1.000000
vn 0.035303 0.999377 0.000000
vn 0.035303 0.999377 0.000000
vn 0.035303 0.999377 0.000000
vn 0.035303 0.999377 0.000000
vn 0.000000 0.000000 -1.000000
vn 0.000000 0.000000 -1.000000
vn 0.000000 0.000000 -1.000000
vn 0.000000 0.000000 -1.000000
vn -0.035303 -0.999377 0.000000
vn -0.035303 -0.999377 0.000000
vn -0.035303 -0.999377 0.000000
vn -0.035303 -0.999377 0.000000
vn 0.999983 -0.005784 0.000000
vn 0.999983 -0.005784 0.000000
vn 0.999983 -0.005784 0.000000
vn 0.999983 -0.005784 0.000000
vn -0.999983 0.005785 0.000000
vn -0.999983 0.005785 0.000000
vn -0.999983 0.005785 0.000000
vn -0.999983 0.005785 0.000000
vn -0.571988 0.003385 -0.820255
vn -0.571988 0.003385 -0.820255
vn -0.571910 -0.016905 -0.820142
vn -0.571913 -0.016510 -0.820148
vn -0.956853 0.005663 0.290518
vn -0.956853 0.005663 0.290518
vn -0.956498 -0.027830 0.290410
vn -0.956491 -0.028064 0.290408
vn -0.019386 0.000115 0.999812
vn -0.019386 0.000115 0.999812
vn -0.019386 -0.000558 0.999812
vn -0.019386 -0.000574 0.999812
vn 0.944873 -0.005593 0.327390
vn 0.944873 -0.005593 0.327390
vn 0.944531 0.027467 0.327272
vn 0.944524 0.027727 0.327269
vn 0.603353 -0.003571 -0.797466
vn 0.603353 -0.003571 -0.797466
vn 0.603261 0.017826 -0.797344
vn 0.603266 0.017420 -0.797350
vn -0.000000 -1.000000 -0.000000
vn -0.000000 -1.000000 -0.000000
vn -0.000000 -1.000000 -0.000000
vn -0.000000 -1.000000 0.000000
vn 0.000000 -1.000000 0.000000
vn 0.000000 -1.000000 -0.000000
vn 0.000000 1.000000 0.000000
vn 0.000000 1.000000 -0.000000
vn 0.000000 1.000000 -0.000000
vn 0.000000 1.000000 0.000000
vn 0.000000 1.000000 -0.000000
vn 0.000000 1.000000 0.000000
vn 0.603305 0.013207 -0.797402
vn 0.603299 0.013850 -0.797395
vn 0.944587 0.025201 0.327291
vn 0.944598 0.024745 0.327295
vn -0.019384 -0.011230 0.999749
vn -0.019384 -0.011715 0.999744
vn -0.955881 -0.045420 0.290222
vn -0.955883 -0.045368 0.290223
vn -0.571735 -0.029969 -0.819891
vn -0.571734 -0.029978 -0.819891
vn 0.603066 -0.031055 -0.797087
vn 0.603066 -0.031055 -0.797086
vn 0.944287 -0.035643 0.327188
vn 0.944287 -0.035643 0.327188
vn -0.019373 -0.036843 0.999133
vn -0.019373 -0.036843 0.999133
vn -0.956347 -0.032998 0.290364
vn -0.956347 -0.032998 0.290364
vn -0.571744 -0.029416 -0.819905
vn -0.571744 -0.029416 -0.819904
vn -0.000000 0.000000 1.000000
vn -0.000000 0.000000 1.000000
vn -0.000000 0.000000 1.000000
vn -0.000000 0.000000 1.000000
vn -0.006112 0.999981 0.000000
vn -0.006112 0.999981 0.000000
vn -0.006112 0.999981 0.000000
vn -0.006112 0.999981 0.000000
vn 0.000000 0.000000 -1.000000
vn 0.000000 0.000000 -1.000000
vn 0.000000 0.000000 -1.000000
vn 0.000000 0.000000 -1.000000
vn 0.006112 -0.999981 0.000000
vn 0.006112 -0.999981 0.000000
vn 0.006112 -0.999981 0.000000
vn 0.006112 -0.999981 0.000000
vn 0.997747 0.067095 0.000000
vn 0.997747 0.067095 0.000000
vn 0.997747 0.067095 0.000000
vn 0.997747 0.067095 0.000000
vn -0.997747 -0.067095 0.000000
vn -0.997747 -0.067095 0.000000
vn -0.997747 -0.067095 0.000000
vn -0.997747 -0.067095 0.000000
vn -0.000000 0.000000 1.000000
vn -0.000000 0.000000 1.000000
vn -0.000000 0.000000 1.000000
vn -0.000000 0.000000 1.000000
vn -0.006112 0.999981 0.000000
vn -0.006112 0.999981 0.000000
vn -0.006112 0.999981 0.000000
vn -0.006112 0.999981 0.000000
vn 0.000000 0.000000 -1.000000
vn 0.000000 0.000000 -1.000000
vn 0.000000 0.000000 -1.000000
vn 0.000000 0.000000 -1.000000
vn 0.006112 -0.999981 0.000000
vn 0.006112 -0.999981 0.000000
vn 0.006112 -0.999981 0.000000
vn 0.006112 -0.999981 0.000000
vn 0.997746 0.067099 0.000000
vn 0.997746 0.067099 0.000000
vn 0.997746 0.067099 0.000000
vn 0.997746 0.067099 0.000000
vn -0.997747 -0.067095 0.000000
vn -0.997747 -0.067095 0.000000
vn -0.997747 -0.067095 0.000000
vn -0.997747 -0.067095 0.000000
vn 0.000000 0.000000 1.000000
vn 0.000000 0.000000 1.000000
vn 0.000000 0.000000 1.000000
vn 0.000000 0.000000 1.000000
vn -0.009605 0.999954 0.000000
vn -0.009605 0.999954 0.000000
vn -0.009605 0.999954 0.000000
vn -0.009605 0.999954 0.000000
vn -0.000000 0.000000 -1.000000
vn -0.000000 0.000000 -1.000000
vn -0.000000 0.000000 -1.000000
vn -0.000000 0.000000 -1.000000
vn 0.009605 -0.999954 0.000000
vn 0.009605 -0.999954 0.000000
vn 0.009605 -0.999954 0.000000
vn 0.009605 -0.999954 0.000000
vn 0.999234 0.039125 0.000000
vn 0.999234 0.039125 0.000000
vn 0.999234 0.039125 0.000000
vn 0.999234 0.039125 0.000000
vn -0.999235 -0.039121 0.000000
vn -0.999235 -0.039121 0.000000
vn -0.999235 -0.039121 0.000000
vn -0.999235 -0.039121 0.000000
vn -0.571988 0.003385 -0.820255
vn -0.571988 0.003385 -0.820255
vn -0.571909 -0.016905 -0.820143
vn -0.571913 -0.016509 -0.820148
vn -0.956853 0.005663 0.290517
vn -0.956853 0.005663 0.290517
vn -0.956498 -0.027830 0.290409
vn -0.956491 -0.028064 0.290408
vn -0.019386 0.000115 0.999812
vn -0.019386 0.000115 0.999812
vn -0.019386 -0.000558 0.999812
vn -0.019386 -0.000574 0.999812
vn 0.944873 -0.005592 0.327390
vn 0.944873 -0.005592 0.327390
vn 0.944531 0.027467 0.327272
vn 0.944524 0.027727 0.327270
vn 0.603353 -0.003571 -0.797466
vn 0.603353 -0.003571 -0.797466
vn 0.603261 0.017826 -0.797344
vn 0.603266 0.017420 -0.797350
vn -0.000000 -1.000000 -0.000000
vn -0.000000 -1.000000 -0.000000
vn -0.000000 -1.000000 -0.000000
vn -0.000000 -1.000000 0.000000
vn 0.000000 -1.000000 0.000000
vn 0.000000 -1.000000 -0.000000
vn 0.000000 1.000000 0.000000
vn 0.000000 1.000000 0.000000
vn 0.000000 1.000000 0.000000
vn 0.000000 1.000000 -0.000000
vn 0.000000 1.000000 0.000000
vn 0.000000 1.000000 0.000000
vn 0.603305 0.013207 -0.797402
vn 0.603299 0.013850 -0.797395
vn 0.944587 0.025201 0.327292
vn 0.944598 0.024745 0.327295
vn -0.019384 -0.011230 0.999749
vn -0.019384 -0.011714 0.999744
vn -0.955881 -0.045420 0.290222
vn -0.955883 -0.045367 0.290223
vn -0.571734 -0.029970 -0.819891
vn -0.571734 -0.029979 -0.819891
vn 0.603066 -0.031053 -0.797086
vn 0.603066 -0.031053 -0.797086
vn 0.944287 -0.035642 0.327188
vn 0.944287 -0.035642 0.327188
vn -0.019373 -0.036843 0.999133
vn -0.019373 -0.036843 0.999133
vn -0.956347 -0.032997 0.290364
vn -0.956347 -0.032997 0.290364
vn -0.571744 -0.029417 -0.819905
vn -0.571744 -0.029417 -0.819905
vn -0.571988 0.003385 -0.820255
vn -0.571988 0.003385 -0.820255
vn -0.571909 -0.016905 -0.820143
vn -0.571913 -0.016509 -0.820148
vn -0.956853 0.005663 0.290518
vn -0.956853 0.005663 0.290518
vn -0.956498 -0.027830 0.290410
vn -0.956492 -0.028064 0.290408
vn -0.019386 0.000115 0.999812
vn -0.019386 0.000115 0.999812
vn -0.019386 -0.000558 0.999812
vn -0.019386 -0.000574 0.999812
vn 0.944873 -0.005592 0.327390
vn 0.944873 -0.005592 0.327390
vn 0.944531 0.027467 0.327272
vn 0.944524 0.027727 0.327269
vn 0.603353 -0.003571 -0.797466
vn 0.603353 -0.003571 -0.797466
vn 0.603261 0.017826 -0.797344
vn 0.603266 0.017420 -0.797350
vn -0.000000 -1.000000 -0.000000
vn -0.000000 -1.000000 -0.000000
vn -0.000000 -1.000000 -0.000000
vn -0.000000 -1.000000 0.000000
vn 0.000000 -1.000000 0.000000
vn 0.000000 -1.000000 -0.000000
vn 0.000000 1.000000 -0.000001
vn 0.000000 1.000000 -0.000000
vn 0.000000 1.000000 -0.000000
vn 0.000000 1.000000 -0.000000
vn 0.000000 1.000000 -0.000000
vn 0.000000 1.000000 -0.000000
vn 0.603305 0.013207 -0.797401
vn 0.603299 0.013850 -0.797395
vn 0.944587 0.025201 0.327291
vn 0.944598 0.024746 0.327295
vn -0.019384 -0.011230 0.999749
vn -0.019384 -0.011715 0.999744
vn -0.955881 -0.045420 0.290222
vn -0.955883 -0.045367 0.290223
vn -0.571734 -0.029970 -0.819891
vn -0.571734 -0.029979 -0.819891
vn 0.603067 -0.031052 -0.797086
vn 0.603067 -0.031052 -0.797086
vn 0.944287 -0.035640 0.327187
vn 0.944287 -0.035640 0.327187
vn -0.019373 -0.036843 0.999133
vn -0.019373 -0.036843 0.999133
vn -0.956347 -0.032997 0.290363
vn -0.956347 -0.032997 0.290363
vn -0.571744 -0.029418 -0.819904
vn -0.571744 -0.029418 -0.819904
s off
g fenceLong
usemtl initialShadingGroup
f 1/173/1 2/174/2 4/175/3 3/176/4
f 3/105/5 4/106/6 6/107/7 5/108/8
f 5/177/9 6/178/10 8/179/11 7/180/12
f 7/109/13 8/110/14 2/111/15 1/112/16
f 2/1/17 8/2/18 6/3/19 4/4/20
f 7/5/21 1/6/22 3/7/23 5/8/24
s 1
f 9/15/25 10/9/26 25/12/27 21/16/28
s 2
f 10/9/29 11/10/30 24/11/31 25/12/32
s 3
f 11/181/33 12/182/34 23/183/35 24/184/36
s 4
f 12/21/37 13/22/38 22/23/39 23/24/40
s 5
f 13/22/41 9/25/42 21/26/43 22/23/44
s 6
f 10/113/45 9/114/46 19/115/47
f 11/117/48 10/113/45 19/115/47
f 12/118/49 11/117/48 19/115/47
f 13/116/50 12/118/49 19/115/47
f 9/114/46 13/116/50 19/115/47
s 7
f 14/119/51 15/120/52 20/121/53
f 15/120/52 16/122/54 20/121/53
f 16/122/54 17/124/55 20/121/53
f 17/124/55 18/123/56 20/121/53
f 18/123/56 14/119/51 20/121/53
s 5
f 22/23/44 21/26/43 26/29/57 27/27/58
s 4
f 23/24/40 22/23/39 27/27/59 28/28/60
s 3
f 24/184/36 23/183/35 28/185/61 29/186/62
s 2
f 25/12/32 24/11/31 29/13/63 30/14/64
s 1
f 21/16/28 25/12/27 30/14/65 26/19/66
s 5
f 27/27/58 26/29/57 14/32/67 18/30/68
s 4
f 28/28/60 27/27/59 18/30/69 17/31/70
s 3
f 29/186/62 28/185/61 17/187/71 16/188/72
s 2
f 30/14/64 29/13/63 16/17/73 15/18/74
s 1
f 26/19/66 30/14/65 15/18/75 14/20/76
s off
f 31/189/77 32/190/78 34/191/79 33/192/80
f 33/125/81 34/126/82 36/127/83 35/128/84
f 35/193/85 36/194/86 38/195/87 37/196/88
f 37/129/89 38/130/90 32/131/91 31/132/92
f 32/33/93 38/34/94 36/35/95 34/36/96
f 37/37/97 31/38/98 33/39/99 35/40/100
f 39/197/101 40/198/102 42/199/103 41/200/104
f 41/133/105 42/134/106 44/135/107 43/136/108
f 43/201/109 44/202/110 46/203/111 45/204/112
f 45/137/113 46/138/114 40/139/115 39/140/116
f 40/41/117 46/42/118 44/43/119 42/44/120
f 45/45/121 39/46/122 41/47/123 43/48/124
f 47/205/125 48/206/126 50/207/127 49/208/128
f 49/141/129 50/142/130 52/143/131 51/144/132
f 51/209/133 52/210/134 54/211/135 53/212/136
f 53/145/137 54/146/138 48/147/139 47/148/140
f 48/49/141 54/50/142 52/51/143 50/52/144
f 53/53/145 47/54/146 49/55/147 51/56/148
s 8
f 55/63/149 56/57/150 71/60/151 67/64/152
s 9
f 56/57/153 57/58/154 70/59/155 71/60/156
s 10
f 57/213/157 58/214/158 69/215/159 70/216/160
s 11
f 58/69/161 59/70/162 68/71/163 69/72/164
s 12
f 59/70/165 55/73/166 67/74/167 68/71/168
s 13
f 56/149/169 55/150/170 65/151/171
f 57/153/172 56/149/169 65/151/171
f 58/154/173 57/153/172 65/151/171
f 59/152/174 58/154/173 65/151/171
f 55/150/170 59/152/174 65/151/171
s 14
f 60/155/175 61/156/176 66/157/177
f 61/156/176 62/158/178 66/157/177
f 62/158/178 63/160/179 66/157/177
f 63/160/179 64/159/180 66/157/177
f 64/159/180 60/155/175 66/157/177
s 12
f 68/71/168 67/74/167 72/77/181 73/75/182
s 11
f 69/72/164 68/71/163 73/75/183 74/76/184
s 10
f 70/216/160 69/215/159 74/217/185 75/218/186
s 9
f 71/60/156 70/59/155 75/61/187 76/62/188
s 8
f 67/64/152 71/60/151 76/62/189 72/67/190
s 12
f 73/75/182 72/77/181 60/80/191 64/78/192
s 11
f 74/76/184 73/75/183 64/78/193 63/79/194
s 10
f 75/218/186 74/217/185 63/219/195 62/220/196
s 9
f 76/62/188 75/61/187 62/65/197 61/66/198
s 8
f 72/67/190 76/62/189 61/66/199 60/68/200
s 15
f 77/87/201 78/81/202 93/84/203 89/88/204
s 16
f 78/81/205 79/82/206 92/83/207 93/84/208
s 17
f 79/221/209 80/222/210 91/223/211 92/224/212
s 18
f 80/93/213 81/94/214 90/95/215 91/96/216
s 19
f 81/94/217 77/97/218 89/98/219 90/95/220
s 20
f 78/161/221 77/162/222 87/163/223
f 79/165/224 78/161/221 87/163/223
f 80/166/225 79/165/224 87/163/223
f 81/164/226 80/166/225 87/163/223
f 77/162/222 81/164/226 87/163/223
s 21
f 82/167/227 83/168/228 88/169/229
f 83/168/228 84/170/230 88/169/229
f 84/170/230 85/172/231 88/169/229
f 85/172/231 86/171/232 88/169/229
f 86/171/232 82/167/227 88/169/229
s 19
f 90/95/220 89/98/219 94/101/233 95/99/234
s 18
f 91/96/216 90/95/215 95/99/235 96/100/236
s 17
f 92/224/212 91/223/211 96/225/237 97/226/238
s 16
f 93/84/208 92/83/207 97/85/239 98/86/240
s 15
f 89/88/204 93/84/203 98/86/241 94/91/242
s 19
f 95/99/234 94/101/233 82/104/243 86/102/244
s 18
f 96/100/236 95/99/235 86/102/245 85/103/246
s 17
f 97/226/238 96/225/237 85/227/247 84/228/248
s 16
f 98/86/240 97/85/239 84/89/249 83/90/250
s 15
f 94/91/242 98/86/241 83/90/251 82/92/252
