# This file uses centimeters as units for non-parametric coordinates.

mtllib pebblesSmall.mtl
g default
v -0.621980 0.000000 0.003000
v -0.241477 0.000000 0.187795
v -0.517773 0.085239 -0.087615
v -0.341734 0.091461 -0.030503
v -0.479823 0.071233 -0.260216
v -0.265075 0.103158 -0.156400
v -0.499708 0.000000 -0.309229
v -0.145423 0.000000 -0.244460
v -0.491621 0.000000 0.066897
v -0.434445 0.090129 -0.055490
v -0.389714 0.085555 -0.235939
v -0.409310 0.000000 -0.316210
v -0.520094 0.077356 -0.173464
v -0.600278 0.000000 -0.202211
v -0.470004 0.000000 -0.139406
v -0.152149 0.000000 -0.039612
v -0.298588 0.098044 -0.101362
v -0.411979 0.087555 -0.137352
v 0.398352 0.000000 -0.730098
v 0.076859 0.000000 -0.486219
v 0.416391 0.103158 -0.425024
v 0.472555 0.000000 -0.287486
v 0.595712 0.000000 -0.611562
v 0.275556 0.000000 -0.344047
v 0.212931 0.000000 -0.648137
v 0.435634 0.000000 -0.477805
v 0.382697 0.051579 -0.617539
v 0.317720 0.000000 -0.312500
v 0.552947 0.000000 -0.142287
v 0.523943 0.074226 -0.388828
v 0.606853 0.000000 -0.456302
v 0.357971 0.000000 -0.473188
v 0.609188 0.000000 -0.308846
v 0.412983 0.000000 -0.202033
v 0.483579 0.000000 -0.391017
v 0.398482 0.037113 -0.325304
vt 0.627801 0.552460
vt 0.729069 0.502823
vt 0.773486 0.597897
vt 0.708753 0.622853
vt 0.923390 0.408905
vt 0.845507 0.578487
vt 0.790938 0.661490
vt 0.706950 0.689543
vt 0.644661 0.711875
vt 0.992783 0.585562
vt 0.879024 0.633532
vt 0.808234 0.738077
vt 0.738234 0.756936
vt 0.722787 0.795011
vt 0.998008 0.744695
vt 0.905058 0.676288
vt 0.793011 0.800434
vt 0.268319 0.497463
vt 0.369520 0.546252
vt 0.352727 0.706516
vt 0.251459 0.656879
vt 0.346445 0.414328
vt 0.416669 0.408905
vt 0.616441 0.623776
vt 0.547048 0.800434
vt 0.621666 0.464643
vt 0.156375 0.404914
vt 0.045931 0.250559
vt 0.108836 0.141153
vt 0.001992 0.097523
vt 0.282158 0.299209
vt 0.253746 0.001850
vt 0.258389 0.167329
vt 0.345829 0.155167
vt 0.548989 0.126205
vt 0.416669 0.299209
vt 0.352998 0.155167
vt 0.652896 0.250559
vt 0.445081 0.001850
vt 0.542452 0.404914
vt 0.696835 0.097523
vt 0.179103 0.600427
vt 0.092906 0.455318
vt 0.201634 0.408905
vt 0.081640 0.551079
vt 0.245324 0.538294
vt 0.018902 0.541133
vt 0.050170 0.665960
vt 0.243510 0.652843
vt 0.130837 0.733785
vt 0.075996 0.880594
vt 0.001992 0.794780
vt 0.228415 0.797618
vt 0.033260 0.669952
vt 0.184725 0.927007
vt 0.226601 0.683069
vn -0.243597 0.831196 0.499775
vn -0.220609 0.844812 0.487467
vn -0.219532 0.845429 0.486883
vn -0.243597 0.831196 0.499775
vn -0.054057 0.996178 -0.068612
vn -0.056012 0.997933 -0.031515
vn -0.082294 0.995798 -0.040171
vn -0.080943 0.993998 -0.073601
vn 0.024012 0.632399 -0.774271
vn 0.198984 0.703863 -0.681896
vn 0.166124 0.692582 -0.701950
vn 0.024012 0.632399 -0.774271
vn 0.000000 -1.000000 0.000000
vn 0.000000 -1.000000 0.000000
vn 0.000000 -1.000000 0.000000
vn 0.000000 -1.000000 0.000000
vn 0.432894 0.876255 0.211612
vn 0.496635 0.849794 0.176646
vn 0.501848 0.847342 0.173665
vn 0.432894 0.876255 0.211612
vn -0.661440 0.720201 -0.209301
vn -0.660405 0.718746 -0.217416
vn -0.672131 0.737597 -0.064735
vn -0.672131 0.737597 -0.064735
vn -0.207735 0.852072 0.480437
vn -0.207735 0.852072 0.480437
vn -0.089200 0.995949 -0.011400
vn -0.057681 0.998334 0.001425
vn 0.226352 0.712468 -0.664195
vn 0.226352 0.712468 -0.664195
vn 0.000000 -1.000000 0.000000
vn 0.000000 -1.000000 0.000000
vn -0.605570 0.648904 -0.460662
vn -0.605570 0.648904 -0.460662
vn 0.000000 -1.000000 0.000000
vn 0.000000 -1.000000 0.000000
vn 0.000000 -1.000000 0.000000
vn 0.606371 0.787622 0.109385
vn 0.606371 0.787623 0.109385
vn -0.103226 0.993340 -0.051195
vn -0.108047 0.993963 -0.019083
vn -0.099270 0.992079 -0.076976
vn -0.333034 0.820031 0.465443
vn -0.295339 0.805945 0.513058
vn -0.252177 0.786652 0.563547
vn -0.249458 0.945422 -0.209638
vn -0.243639 0.941069 -0.234581
vn -0.249457 0.945422 -0.209637
vn 0.232924 0.928404 -0.289505
vn 0.231612 0.919838 -0.316629
vn 0.231281 0.917749 -0.322871
vn 0.666772 0.700863 0.253390
vn 0.666772 0.700863 0.253390
vn 0.666772 0.700863 0.253390
vn 0.000000 -1.000000 0.000000
vn 0.000000 -1.000000 0.000000
vn 0.000000 -1.000000 0.000000
vn 0.000000 -1.000000 0.000000
vn 0.000000 -1.000000 0.000000
vn -0.182773 0.749235 0.636586
vn 0.000000 -1.000000 0.000000
vn -0.231840 0.930771 -0.282692
vn 0.000000 -1.000000 0.000000
vn 0.227793 0.896808 -0.379270
vn -0.190392 0.882172 -0.430724
vn 0.542245 0.820028 0.183095
vn 0.576823 0.805942 0.133169
vn 0.612559 0.786648 0.077176
vn -0.127926 0.945423 0.299685
vn -0.153483 0.941070 0.301381
vn -0.127926 0.945423 0.299685
vn -0.344780 0.928403 -0.138544
vn -0.370345 0.919838 -0.129391
vn -0.376220 0.917749 -0.127257
vn 0.048283 0.700861 -0.711662
vn 0.048283 0.700861 -0.711662
vn 0.048283 0.700861 -0.711662
vn 0.000000 -1.000000 0.000000
vn 0.000000 -1.000000 0.000000
vn 0.000000 -1.000000 0.000000
vn 0.000000 -1.000000 0.000000
vn 0.000000 -1.000000 0.000000
vn 0.662228 0.749229 -0.010487
vn 0.000000 -1.000000 0.000000
vn -0.202945 0.930772 0.304100
vn 0.000000 -1.000000 0.000000
vn -0.429155 0.896811 -0.107499
vn -0.356633 0.882171 0.307549
s 1
g pebblesSmall
usemtl initialShadingGroup
f 1/1/1 9/2/2 10/3/3 3/4/4
s 2
f 3/4/5 10/3/6 18/7/7 13/8/8
s 3
f 5/13/9 11/12/10 12/17/11 7/14/12
s 4
f 14/18/13 15/19/14 9/20/15 1/21/16
s 5
f 2/5/17 16/10/18 17/11/19 4/6/20
s 6
f 13/8/21 14/9/22 1/1/23 3/4/24
s 1
f 10/3/3 9/2/2 2/5/25 4/6/26
s 2
f 17/11/27 18/7/7 10/3/6 4/6/28
s 3
f 12/17/11 11/12/10 6/16/29 8/15/30
s 4
f 9/20/15 15/19/14 16/24/31 2/25/32
s 6
f 7/14/33 14/9/22 13/8/21 5/13/34
s 4
f 7/22/35 12/23/36 15/19/14 14/18/13
f 16/24/31 15/19/14 12/23/36 8/26/37
s 5
f 17/11/19 16/10/18 8/15/38 6/16/39
s 2
f 11/12/40 18/7/7 17/11/27 6/16/41
f 13/8/8 18/7/7 11/12/40 5/13/42
s 7
f 20/27/43 24/28/44 21/29/45
s 8
f 21/29/46 25/31/47 20/27/48
s 9
f 21/29/49 23/32/50 27/33/51
s off
f 23/32/52 21/29/53 22/30/54
s 10
f 26/35/55 25/36/56 19/37/57
f 24/38/58 26/35/55 22/41/59
s 7
f 21/29/45 24/28/44 22/30/60
s 10
f 24/38/58 25/36/56 26/35/55
f 25/36/56 24/38/58 20/40/61
s 8
f 27/33/62 25/31/47 21/29/46
s 10
f 23/39/63 26/35/55 19/37/57
f 26/35/55 23/39/63 22/41/59
s 9
f 19/34/64 27/33/51 23/32/50
s 8
f 27/33/62 19/34/65 25/31/47
s 11
f 29/44/66 33/46/67 30/42/68
s 12
f 30/42/69 34/43/70 29/44/71
s 13
f 30/42/72 32/48/73 36/45/74
s off
f 32/48/75 30/42/76 31/49/77
s 14
f 35/50/78 34/51/79 28/52/80
f 33/53/81 35/50/78 31/56/82
s 11
f 30/42/68 33/46/67 31/49/83
s 14
f 33/53/81 34/51/79 35/50/78
f 34/51/79 33/53/81 29/55/84
s 12
f 36/45/85 34/43/70 30/42/69
s 14
f 32/54/86 35/50/78 28/52/80
f 35/50/78 32/54/86 31/56/82
s 13
f 28/47/87 36/45/74 32/48/73
s 12
f 36/45/85 28/47/88 34/43/70
