# This file uses centimeters as units for non-parametric coordinates.

mtllib pebblesLarge.mtl
g default
v -0.788272 0.000000 0.399157
v 0.125248 0.000000 0.842815
v -0.538089 0.204644 0.181606
v -0.115451 0.219580 0.318721
v -0.446978 0.171017 -0.232778
v 0.068596 0.247664 0.016465
v -0.494718 0.000000 -0.350449
v 0.355858 0.000000 -0.194950
v -0.475302 0.000000 0.552561
v -0.338032 0.216384 0.258732
v -0.230642 0.205401 -0.174494
v -0.277688 0.000000 -0.367209
v -0.543661 0.185718 -0.024501
v -0.736168 0.000000 -0.093519
v -0.423404 0.000000 0.057265
v 0.339709 0.000000 0.296854
v -0.011864 0.235387 0.148603
v -0.284097 0.210203 0.062197
v 0.280715 0.000000 0.789158
v 0.788272 0.000000 -0.112610
v -0.068831 0.286916 0.302793
v 0.342623 0.269185 0.091306
v -0.070939 0.265299 0.172452
v 0.191770 0.282376 -0.046743
v -0.287521 0.000000 0.360627
v 0.122158 0.000000 -0.339914
v 0.654385 0.000000 0.594396
v 0.305317 0.245378 0.255146
v 0.028767 0.314254 0.052721
v -0.109184 0.000000 0.055675
vt 0.643858 0.705806
vt 0.662618 0.751688
vt 0.542194 0.750556
vt 0.542194 0.633696
vt 0.650402 0.789803
vt 0.542194 0.902148
vt 0.542194 0.469481
vt 0.652142 0.655858
vt 0.001992 0.171813
vt 0.121924 0.113028
vt 0.174527 0.225625
vt 0.097863 0.255180
vt 0.352058 0.001801
vt 0.259821 0.202637
vt 0.195195 0.300938
vt 0.095728 0.334162
vt 0.021959 0.360609
vt 0.434241 0.211016
vt 0.299516 0.267827
vt 0.215679 0.391640
vt 0.132778 0.413974
vt 0.114484 0.459067
vt 0.440429 0.399479
vt 0.330349 0.318463
vt 0.197651 0.465489
vt 0.468464 0.106680
vt 0.588317 0.164461
vt 0.568429 0.354262
vt 0.448497 0.295477
vt 0.560989 0.008223
vt 0.644156 0.001801
vt 0.880746 0.256274
vt 0.798563 0.465489
vt 0.886934 0.067811
vt 0.803509 0.469481
vt 0.946702 0.544114
vt 0.812937 0.674117
vt 0.669561 0.655858
vt 0.998008 0.815044
vt 0.827233 0.736901
vt 0.706961 0.751688
vt 0.668753 0.705806
vt 0.742749 0.902148
vt 0.769425 0.789803
vt 0.123808 0.737932
vt 0.192148 0.621073
vt 0.484752 0.827514
vt 0.341560 0.902148
vt 0.280800 0.469481
vt 0.536059 0.556585
vn -0.243596 0.831196 0.499775
vn -0.220609 0.844812 0.487467
vn -0.219532 0.845429 0.486883
vn -0.243596 0.831196 0.499775
vn -0.054057 0.996178 -0.068612
vn -0.056012 0.997933 -0.031515
vn -0.082293 0.995798 -0.040171
vn -0.080943 0.993998 -0.073601
vn 0.024012 0.632399 -0.774271
vn 0.198984 0.703863 -0.681896
vn 0.166124 0.692582 -0.701949
vn 0.024012 0.632399 -0.774271
vn 0.000000 -1.000000 0.000000
vn 0.000000 -1.000000 0.000000
vn 0.000000 -1.000000 0.000000
vn 0.000000 -1.000000 0.000000
vn 0.432894 0.876255 0.211612
vn 0.496635 0.849794 0.176647
vn 0.501848 0.847342 0.173665
vn 0.432894 0.876255 0.211612
vn -0.661440 0.720201 -0.209301
vn -0.660405 0.718746 -0.217416
vn -0.672131 0.737597 -0.064735
vn -0.672131 0.737597 -0.064735
vn -0.207735 0.852073 0.480436
vn -0.207735 0.852073 0.480436
vn -0.089200 0.995949 -0.011400
vn -0.057681 0.998334 0.001425
vn 0.226351 0.712468 -0.664195
vn 0.226351 0.712468 -0.664195
vn 0.000000 -1.000000 0.000000
vn 0.000000 -1.000000 0.000000
vn -0.605571 0.648903 -0.460662
vn -0.605571 0.648903 -0.460662
vn 0.000000 -1.000000 0.000000
vn 0.000000 -1.000000 0.000000
vn 0.000000 -1.000000 0.000000
vn 0.606370 0.787623 0.109386
vn 0.606370 0.787623 0.109386
vn -0.103226 0.993340 -0.051195
vn -0.108047 0.993963 -0.019083
vn -0.099270 0.992079 -0.076976
vn 0.184711 0.889771 0.417359
vn 0.342882 0.891378 0.296442
vn 0.356247 0.889817 0.285158
vn 0.184711 0.889771 0.417359
vn 0.026436 0.992563 0.118825
vn 0.087906 0.991914 0.091538
vn 0.068813 0.992597 0.100077
vn 0.026436 0.992563 0.118825
vn -0.806323 0.331775 -0.489661
vn -0.705504 0.456369 -0.542209
vn -0.734262 0.424526 -0.529752
vn -0.806323 0.331775 -0.489661
vn 0.000000 -1.000000 0.000000
vn 0.000000 -1.000000 0.000000
vn 0.000000 -1.000000 0.000000
vn 0.000000 -1.000000 0.000000
vn 0.283865 0.741469 -0.607984
vn 0.283865 0.741469 -0.607984
vn 0.283865 0.741469 -0.607984
vn 0.283865 0.741469 -0.607984
vn -0.588291 0.565012 0.578512
vn -0.588291 0.565012 0.578512
vn -0.588291 0.565012 0.578512
vn -0.588291 0.565012 0.578512
vn 0.523956 0.842370 0.126029
vn 0.523956 0.842370 0.126029
vn 0.133217 0.988537 0.071043
vn 0.133217 0.988537 0.071043
vn -0.660660 0.501538 -0.558560
vn -0.660660 0.501538 -0.558560
vn 0.000000 -1.000000 0.000000
vn 0.000000 -1.000000 0.000000
s 1
g pebblesLarge
usemtl initialShadingGroup
f 1/9/1 9/10/2 10/11/3 3/12/4
s 2
f 3/12/5 10/11/6 18/15/7 13/16/8
s 3
f 5/21/9 11/20/10 12/25/11 7/22/12
s 4
f 14/26/13 15/27/14 9/28/15 1/29/16
s 5
f 2/13/17 16/18/18 17/19/19 4/14/20
s 6
f 13/16/21 14/17/22 1/9/23 3/12/24
s 1
f 10/11/3 9/10/2 2/13/25 4/14/26
s 2
f 17/19/27 18/15/7 10/11/6 4/14/28
s 3
f 12/25/11 11/20/10 6/24/29 8/23/30
s 4
f 9/28/15 15/27/14 16/32/31 2/33/32
s 6
f 7/22/33 14/17/22 13/16/21 5/21/34
s 4
f 7/30/35 12/31/36 15/27/14 14/26/13
f 16/32/31 15/27/14 12/31/36 8/34/37
s 5
f 17/19/19 16/18/18 8/23/38 6/24/39
s 2
f 11/20/40 18/15/7 17/19/27 6/24/41
f 13/16/8 18/15/7 11/20/40 5/21/42
s 7
f 19/35/43 27/36/44 28/37/45 21/38/46
s 8
f 21/38/47 28/37/48 29/41/49 23/42/50
s 9
f 23/1/51 29/2/52 30/3/53 25/4/54
s 10
f 25/45/55 30/46/56 27/47/57 19/48/58
s off
f 20/39/59 26/43/60 24/44/61 22/40/62
f 25/4/63 19/7/64 21/8/65 23/1/66
s 7
f 28/37/45 27/36/44 20/39/67 22/40/68
s 8
f 29/41/49 28/37/48 22/40/69 24/44/70
s 9
f 30/3/53 29/2/52 24/5/71 26/6/72
s 10
f 27/47/57 30/46/56 26/49/73 20/50/74
