# This file uses centimeters as units for non-parametric coordinates.

mtllib shrub.mtl
g default
v 0.223111 0.000000 -0.373274
v -0.217910 0.000000 -0.229978
v -0.217910 0.000000 0.233739
v 0.223111 0.000000 0.377035
v 0.495677 0.000000 0.001881
v 0.195432 0.504672 -0.249989
v -0.100658 0.504672 -0.153783
v -0.100658 0.504672 0.157544
v 0.195432 0.504672 0.253750
v 0.378425 0.504672 0.001881
v 0.101216 0.000000 0.001881
v 0.113594 0.504672 0.001881
v -0.770953 0.302833 -0.157907
v -1.014635 1.088465 -0.626442
v -0.299811 0.201157 0.056711
v -0.296373 0.273111 -0.363552
v -1.409453 0.854627 0.032248
v -1.268978 1.285025 0.122981
v -1.173289 0.888853 0.597262
v -0.303078 1.268656 -1.003252
v -0.301756 0.844382 -0.932632
v 0.109567 0.720535 -0.772098
v 0.533371 0.597242 -0.862243
v 0.646295 0.389755 -0.508816
v -0.223921 1.696452 -0.830507
v -0.989490 0.564868 0.591564
v -0.845507 1.746112 -0.396196
v 1.174426 0.819716 -0.628665
v -0.987588 1.555815 0.454903
v 0.242961 0.450851 -0.407043
v -0.515502 1.962662 -0.466715
v -0.715105 0.865277 0.968389
v 0.943966 1.274861 -0.883094
v -0.858677 1.976604 0.205955
v -0.117048 0.528256 0.779060
v -0.649770 1.281276 0.887014
v 1.017555 0.464516 -0.150890
v -0.287628 0.838278 1.051447
v -0.408317 2.310310 0.020273
v 0.429904 0.382379 0.067549
v 0.769415 1.869456 -0.530477
v 0.900984 0.729286 0.632666
v 1.208493 1.414322 -0.557093
v -0.236404 1.273463 1.011049
v -0.443526 1.684859 0.775982
v 1.409453 1.006312 -0.120990
v 0.411835 0.936267 0.771093
v -0.443840 2.063907 0.501821
v 0.275685 1.870789 0.414339
v 0.921852 2.020938 -0.150277
v 1.098618 1.263355 0.677354
v 1.196407 1.788032 0.181365
v 0.298876 1.794523 -0.559385
v 0.185153 0.684928 0.604048
v 0.851862 1.796447 0.561002
v 0.296084 0.944711 0.697334
v 0.252643 0.622440 0.569680
v 0.305407 2.142576 -0.108749
v 0.340028 1.555412 0.602912
v -1.158867 0.503192 -0.149724
v -0.958222 0.658338 -0.541808
vt 0.419263 0.731406
vt 0.502873 0.731406
vt 0.489135 0.822400
vt 0.433001 0.822400
vt 0.813145 0.528666
vt 0.735542 0.545025
vt 0.741713 0.443151
vt 0.777704 0.663790
vt 0.683297 0.444178
vt 0.861969 0.468819
vt 0.896281 0.622276
vt 0.672177 0.577836
vt 0.737462 0.376235
vt 0.812469 0.390907
vt 0.810193 0.731731
vt 0.700150 0.648530
vt 0.885236 0.410927
vt 0.937839 0.513705
vt 0.887327 0.700584
vt 0.935326 0.634991
vt 0.953580 0.460359
vt 0.998008 0.547185
vt 0.371967 0.503921
vt 0.359062 0.611131
vt 0.280431 0.537565
vt 0.417842 0.585986
vt 0.225915 0.678513
vt 0.285822 0.439877
vt 0.354263 0.693194
vt 0.285711 0.720507
vt 0.136486 0.583911
vt 0.350357 0.426397
vt 0.144543 0.487616
vt 0.157465 0.680030
vt 0.001992 0.600926
vt 0.081510 0.575089
vt 0.059532 0.642731
vt 0.130655 0.642731
vt 0.001992 0.684536
vt 0.081510 0.710373
vt 0.564250 0.822232
vt 0.510864 0.804886
vt 0.549494 0.776819
vt 0.510864 0.748752
vt 0.597244 0.776819
vt 0.564250 0.731406
vt 0.141678 0.352463
vt 0.276811 0.391866
vt 0.143154 0.422406
vt 0.180375 0.267514
vt 0.072459 0.386229
vt 0.104600 0.266894
vt 0.310618 0.234561
vt 0.096758 0.169650
vt 0.182329 0.135944
vt 0.344755 0.342394
vt 0.001992 0.267865
vt 0.030937 0.193702
vt 0.272865 0.167904
vt 0.359730 0.265318
vt 0.014684 0.117288
vt 0.078408 0.096927
vt 0.284222 0.051006
vt 0.142944 0.029987
vt 0.309181 0.139201
vt 0.056799 0.001703
vt 0.733984 0.372244
vt 0.680638 0.297447
vt 0.767463 0.291042
vt 0.696411 0.167713
vt 0.631205 0.297390
vt 0.790726 0.162354
vt 0.662411 0.156112
vt 0.798214 0.051206
vt 0.855269 0.310368
vt 0.588822 0.260045
vt 0.669967 0.063826
vt 0.866765 0.078691
vt 0.871978 0.163532
vt 0.738417 0.001703
vt 0.920862 0.257794
vt 0.930344 0.047219
vt 0.388080 0.812694
vt 0.413039 0.724498
vt 0.401379 0.833565
vt 0.229608 0.773643
vt 0.229608 0.853161
vt 0.138614 0.832020
vt 0.138614 0.778634
vt 0.229608 0.724498
vt 0.138614 0.745639
vt 0.236061 0.853161
vt 0.236061 0.773643
vt 0.327056 0.778634
vt 0.327056 0.832020
vt 0.236061 0.724498
vt 0.327056 0.745639
vt 0.461457 0.268103
vt 0.560286 0.193702
vt 0.537956 0.267865
vt 0.384324 0.253831
vt 0.493946 0.396400
vt 0.366641 0.159568
vt 0.571500 0.386229
vt 0.460338 0.043256
vt 0.582516 0.117288
vt 0.542403 0.001703
vt 0.372554 0.836573
vt 0.333509 0.777072
vt 0.381508 0.724498
vt 0.452225 0.565093
vt 0.423977 0.619582
vt 0.440959 0.552925
vt 0.499065 0.545092
vt 0.497543 0.524222
vt 0.479875 0.650338
vt 0.558341 0.641102
vt 0.609178 0.537169
vt 0.559750 0.715634
vt 0.556518 0.400392
vt 0.484743 0.727414
vt 0.632517 0.678447
vt 0.652637 0.444883
vt 0.666041 0.548770
vt 0.072898 0.571098
vt 0.034056 0.462032
vt 0.130351 0.426397
vn -0.302090 0.210555 -0.929736
vn -0.302089 0.210555 -0.929736
vn -0.302089 0.210555 -0.929736
vn -0.302089 0.210555 -0.929736
vn -0.974057 0.226305 -0.000000
vn -0.974057 0.226305 -0.000000
vn -0.974057 0.226305 -0.000000
vn -0.974057 0.226305 -0.000000
vn -0.302090 0.210555 0.929736
vn -0.302090 0.210555 0.929736
vn -0.302090 0.210555 0.929736
vn -0.302090 0.210555 0.929736
vn 0.795094 0.184726 0.577669
vn 0.795094 0.184726 0.577670
vn 0.795094 0.184726 0.577670
vn 0.795094 0.184726 0.577669
vn 0.795094 0.184726 -0.577669
vn 0.795094 0.184726 -0.577669
vn 0.795094 0.184726 -0.577669
vn 0.795094 0.184726 -0.577669
vn 0.000000 -1.000000 0.000000
vn 0.000000 -1.000000 0.000000
vn 0.000000 -1.000000 0.000000
vn 0.000000 -1.000000 0.000000
vn 0.000000 -1.000000 0.000000
vn 0.000000 -1.000000 0.000000
vn 0.000000 1.000000 -0.000000
vn 0.000000 1.000000 -0.000000
vn 0.000000 1.000000 -0.000000
vn 0.000000 1.000000 0.000000
vn 0.000000 1.000000 -0.000000
vn 0.000000 1.000000 -0.000000
vn -0.351993 -0.930606 -0.100362
vn -0.405709 -0.781238 0.474413
vn -0.712382 -0.678287 -0.180105
vn 0.006355 -0.974697 0.223440
vn 0.110102 -0.816732 0.566415
vn -0.027486 -0.856333 -0.515691
vn 0.235798 -0.887748 -0.395351
vn 0.258861 -0.956005 0.138002
vn 0.299751 -0.416231 -0.858430
vn -0.890256 0.455072 -0.018799
vn -0.984013 -0.139302 -0.110968
vn -0.802988 0.012130 0.595872
vn -0.697948 0.167073 -0.696387
vn -0.711801 0.510274 -0.482660
vn -0.094466 0.214431 -0.972160
vn -0.150385 -0.459923 -0.875131
vn 0.112271 0.441881 -0.890020
vn 0.044153 -0.415032 -0.908735
vn -0.239366 -0.929237 -0.281464
vn -0.302570 -0.018733 -0.952943
vn 0.212021 -0.922787 -0.321733
vn -0.744139 0.494394 0.449256
vn 0.280330 0.532971 -0.798347
vn 0.149551 -0.949559 0.275631
vn 0.712803 -0.399675 -0.576343
vn 0.574195 -0.812025 0.104482
vn -0.244433 0.777035 -0.580060
vn -0.370311 -0.304823 0.877470
vn 0.108417 0.195009 -0.974791
vn -0.786902 0.603304 0.129649
vn 0.180470 -0.260166 0.948549
vn -0.482772 0.328270 0.811893
vn -0.098933 0.991450 -0.085086
vn -0.190888 0.440609 -0.877169
vn 0.230597 0.695816 -0.680195
vn 0.601245 -0.366623 0.709995
vn 0.483221 -0.685198 0.544978
vn -0.104248 0.566270 0.817601
vn 0.554445 -0.053653 0.830489
vn 0.203044 0.963967 -0.171873
vn 0.247093 0.282976 0.926752
vn 0.837584 0.343850 -0.424523
vn -0.048277 0.761187 0.646733
vn 0.982154 -0.167298 0.085937
vn 0.476817 -0.579508 0.660921
vn 0.069990 -0.796312 0.600823
vn 0.084955 -0.252312 0.963909
vn 0.389153 0.383639 0.837485
vn 0.151112 0.984798 0.085662
vn 0.450952 0.889250 -0.076663
vn 0.012217 0.117112 0.993043
vn 0.646431 0.015548 0.762814
vn 0.278383 0.724590 0.630453
vn 0.858833 0.479620 0.179916
vn -0.061035 0.247233 0.967032
vn 0.046168 0.856156 0.514651
vn 0.217525 0.681129 0.699104
vn -0.133499 -0.462239 0.876649
vn -0.539711 -0.070770 0.838870
vn -0.463306 -0.523988 -0.714692
s off
g shrub
usemtl initialShadingGroup
f 1/86/1 2/87/2 7/88/3 6/89/4
f 2/1/5 3/2/6 8/3/7 7/4/8
f 3/92/9 4/93/10 9/94/11 8/95/12
f 4/93/13 5/96/14 10/97/15 9/94/16
f 5/90/17 1/86/18 6/89/19 10/91/20
s 1
f 2/35/21 1/36/22 11/37/23
f 3/39/24 2/35/21 11/37/23
f 4/40/25 3/39/24 11/37/23
f 5/38/26 4/40/25 11/37/23
f 1/36/22 5/38/26 11/37/23
s 2
f 6/41/27 7/42/28 12/43/29
f 7/42/28 8/44/30 12/43/29
f 8/44/30 9/46/31 12/43/29
f 9/46/31 10/45/32 12/43/29
f 10/45/32 6/41/27 12/43/29
s 3
f 13/47/33 26/48/34 60/49/35
f 13/47/33 15/50/36 26/48/34
f 26/48/34 15/50/36 35/53/37
f 16/52/38 30/54/39 15/50/36
f 15/50/36 30/54/39 40/55/40
f 30/54/39 16/52/38 22/58/41
f 18/5/42 17/6/43 19/7/44
f 14/8/45 18/5/42 27/11/46
f 20/98/47 22/99/41 21/100/48
f 14/8/45 27/11/46 20/15/47
f 20/15/47 27/11/46 25/19/49
s 7
f 23/61/50 30/54/51 22/58/52
f 30/54/51 23/61/50 24/62/53
s 3
f 27/11/46 18/5/42 29/10/54
f 20/98/47 25/101/49 22/99/41
f 22/99/41 25/101/49 53/103/55
f 18/5/42 19/7/44 29/10/54
f 35/53/37 15/50/36 40/55/40
s 7
f 24/62/53 40/55/56 30/54/51
f 23/61/50 28/66/57 24/62/53
f 24/32/53 28/23/57 37/28/58
s 3
f 27/108/46 31/109/59 25/110/49
f 25/81/49 31/75/59 53/79/55
f 19/7/44 26/9/34 32/13/60
s 7
f 23/106/50 33/105/61 28/107/57
f 24/62/53 37/64/58 40/55/56
s 3
f 27/11/46 29/10/54 34/18/62
f 26/48/34 35/53/37 32/56/60
f 32/56/60 35/53/37 38/60/63
s 7
f 22/99/52 33/105/61 23/106/50
s 3
f 29/10/54 19/7/44 36/14/64
f 36/14/64 19/7/44 32/13/60
f 34/18/62 39/22/65 31/20/59
s 7
f 33/82/61 53/79/66 41/78/67
s 3
f 54/111/68 35/112/37 57/113/69
f 40/55/40 57/59/69 35/53/37
f 29/10/54 36/14/64 45/17/70
f 34/18/62 31/20/59 27/11/46
f 38/116/63 35/112/37 56/114/71
f 53/79/55 31/75/59 58/72/72
f 58/72/72 31/75/59 39/69/65
f 32/121/60 38/116/63 36/119/64
f 36/119/64 38/116/63 44/117/73
s 7
f 28/23/57 33/26/61 43/24/74
f 53/103/66 33/105/61 22/99/52
s 3
f 34/67/62 48/68/75 39/69/65
f 29/10/54 45/17/70 34/18/62
f 34/18/62 45/17/70 48/21/75
s 7
f 37/28/58 28/23/57 46/25/76
f 40/55/56 42/63/77 57/59/78
f 40/55/56 37/64/58 42/63/77
s 3
f 38/116/63 56/114/71 44/117/73
s 7
f 28/23/57 43/24/74 46/25/76
s 3
f 45/122/70 36/119/64 44/117/73
s 7
f 41/29/67 43/24/74 33/26/61
f 57/59/78 42/63/77 47/65/79
f 46/25/76 42/33/77 37/28/58
s 3
f 45/71/70 44/76/73 59/73/80
f 59/118/80 44/117/73 56/114/71
s 7
f 41/78/67 58/72/81 50/74/82
f 47/83/79 42/84/77 56/85/83
f 56/125/83 42/126/77 51/127/84
s 3
f 39/69/65 49/70/85 58/72/72
f 48/68/75 45/71/70 49/70/85
f 49/70/85 45/71/70 59/73/80
s 7
f 43/24/74 41/29/67 50/30/82
s 3
f 48/68/75 49/70/85 39/69/65
s 7
f 46/25/76 43/24/74 52/27/86
f 56/114/83 51/120/84 59/118/87
f 42/33/77 46/25/76 51/31/84
f 58/72/81 49/70/88 50/74/82
f 50/74/82 49/70/88 55/77/89
f 43/24/74 50/30/82 52/27/86
f 59/118/87 55/123/89 49/124/88
f 46/25/76 52/27/86 51/31/84
f 51/31/84 52/27/86 55/34/89
s 3
f 35/112/37 54/111/68 56/114/71
s 7
f 51/120/84 55/123/89 59/118/87
f 50/74/82 55/77/89 52/80/86
f 57/113/78 47/115/79 54/111/90
f 56/114/91 54/111/90 47/115/79
f 41/78/67 53/79/66 58/72/81
s 3
f 20/98/47 21/100/48 14/102/45
f 26/9/34 17/6/43 60/12/35
f 26/9/34 19/7/44 17/6/43
f 18/5/42 14/8/45 17/6/43
f 16/52/38 15/50/36 13/47/33
f 22/58/41 16/52/38 21/57/48
f 61/51/92 16/52/38 13/47/33
f 16/52/38 61/51/92 21/57/48
f 21/100/48 61/104/92 14/102/45
f 60/12/35 17/6/43 14/8/45
f 14/8/45 61/16/92 60/12/35
f 61/51/92 13/47/33 60/49/35
